<svg width="1500" height="1300" xmlns="http://www.w3.org/2000/svg">
 <title>demo-parking-map</title>
    <!-- 
    base
        floor
        staff_room
        road
        obstacle_1..3

    slot lines
        line_slot_1..8

    barrier
        barrier_bar
        barrier_bar_cell_1..3
        barrier_box
        barrier_sign

    arrows
        arrow_ent_1
        arrow_ent_2
        arrow_ext_1
        arrow_ext_2

    boxes
        box_enter
        box_exit
        box_staff_ent
        box_staff_win_1,2

    icons
        icn_cam
        icn_gate
        icn_operator
        icn_power
        icn_speaker
        icn_staff

    slots
        slot_1..6

    texts
     txt_enter
     txt_exit
     txt_staff_room
     txt_slot_1..6

    slot buttons
        slot_1_btn..6
    -->
 <defs>
  <filter height="200%" width="200%" y="-50%" x="-50%" id="blur-filter">
   <feGaussianBlur stdDeviation="2" in="SourceGraphic"/>
  </filter>
 </defs>
 <g>
  <title>parking lot map</title>
  <g>
  <title>base</title>
  <rect stroke-width="4" stroke="#000" id="floor" height="1191.08587" width="1271.08418" y="52.50486" x="116.43283" fill="#c4ffff"/>
  <rect id="staff_room" height="579.72387" width="348.64513" y="664.0824" x="115.39659" stroke="#000" fill="#007fff"/>
  <path id="road" d="m116.65436,619.97512c0,0 395.022,-0.78378 412.18929,-0.81299c17.16729,-0.02921 15.03048,-0.13888 15.44694,24.3899c0.41646,24.52878 0.813,599.50374 0.813,599.50374c0,0 310.07693,0.81299 310.07693,0.81299c0,0 -0.85042,-802.10731 -0.72107,-829.9791c0.12935,-27.87179 -18.88012,-46.11101 -43.18074,-46.1061c-24.30062,0.0049 -693.07463,-1.07035 -694.2072,-0.23471c-1.13257,0.83564 -0.41715,252.42627 -0.41715,252.42627z" stroke="#000" fill="#2f3a63"/>
  <rect stroke-width="0" stroke="#000" id="obstacle_1" height="109.86082" width="219.72163" y="1132.28052" x="924.39149" fill="#3f007f"/>
  <path transform="rotate(-90 1275.14 1134.22)" stroke-width="0" stroke="#000" id="obstacle_2" d="m1166.3182,1243.03767l0,-217.64299l217.64294,217.64299l-217.64294,0z" fill="#2f3a63"/>
  <path transform="rotate(-45 1147.69 55.8047)" stroke-width="0" id="obstacle_3" d="m1038.86957,164.6262l0,-217.643l217.64294,217.643l-217.64294,0z" stroke="#000" fill="#004900"/>
  </g>
  <g>
  <title>slot lines</title>
  <line transform="rotate(45 244.389 181.367)" stroke-width="3.5" stroke="#000" id="line_slot_1" y2="181.36699" x2="424.03868" y1="181.36699" x1="64.7387" fill="none"/>
  <line transform="rotate(45 510.707 180.427)" stroke-width="3.5" stroke="#000" id="line_slot_2" y2="180.42724" x2="690.06973" y1="180.42724" x1="331.34367" fill="none"/>
  <line transform="rotate(45 767.803 181.773)" stroke-width="3.5" stroke="#000" id="line_slot_3" y2="181.77305" x2="946.30291" y1="181.77305" x1="589.30249" fill="none"/>
  <line transform="rotate(45 1022.95 175.54)" stroke-width="3.5" stroke="#000" id="line_slot_4" y2="175.5405" x2="1192.73387" y1="175.5405" x1="853.16407" fill="none"/>
  <line transform="rotate(-45 1259.61 182.642)" stroke-width="3.5" stroke="#000" id="line_slot_5" y2="182.64176" x2="1442.06053" y1="182.64176" x1="1077.15104" fill="none"/>
  <line transform="rotate(-45 1255.91 449.367)" stroke-width="3.5" stroke="#000" id="line_slot_6" y2="449.36681" x2="1443.34658" y1="449.36681" x1="1068.47105" fill="none"/>
  <line transform="rotate(-45 1255.88 711.623)" stroke-width="3.5" stroke="#000" id="line_slot_7" y2="711.62275" x2="1443.8725" y1="711.62275" x1="1067.89211" fill="none"/>
  <line transform="rotate(-45 1255.81 976.506)" stroke-width="3.5" stroke="#000" id="line_slot_8" y2="976.50618" x2="1442.97653" y1="976.50618" x1="1068.65342" fill="none"/>
  </g>
  <g>
  <title>barrier</title>
  <rect id="barrier_box" height="74.5119" width="80.39441" y="1024.94896" x="464.46877" stroke="#000" fill="#ffbf00"/>
  <rect id="barrier_bar" height="43.13847" width="321.57765" y="1055.80412" x="545.83406" stroke="#000" fill="#ffffff"/>
  <path id="barrier_bar_cell_3" d="m754.4735,1071.42567l72.13205,0l0,13.11494l-72.13205,0l0,-13.11494z" stroke="#000" fill="#ff2b2b"/>
  <path id="barrier_bar_cell_1" d="m563.9092,1070.48228l72.13205,0l0,13.11494l-72.13205,0l0,-13.11494z" stroke="#000" fill="#ff2b2b"/>
  <path id="barrier_bar_cell_2" d="m658.24796,1070.48228l72.13205,0l0,13.11494l-72.13205,0l0,-13.11494z" stroke="#000" fill="#ff2b2b"/>
  <path stroke="#000" id="barrier_sign" d="m531.57753,1080.86313l-7.70819,-13.3478c-2.32399,-4.02299 -6.1252,-10.60895 -8.4492,-14.63272l-7.70747,-13.34699c-2.3263,-4.02535 -6.1275,-4.02535 -8.45072,0l-7.70591,13.34699c-2.32399,4.02377 -6.12751,10.61126 -8.45074,14.63272l-7.70669,13.3478c-2.32399,4.02687 -0.42183,7.31829 4.22538,7.31829l47.72356,0c4.65185,0 6.55165,-3.29142 4.22998,-7.31829l0,0zm-25.8892,2.06634l-4.5717,0l0,-4.38878l4.5717,0l0,4.38878zm-0.22025,-7.6226l-4.12729,0l-0.41017,-18.77796l4.91103,0l-0.37357,18.77796l0,0z" fill="#eeff00"/>
  </g>
  <g>
  <title>arrows</title><path transform="rotate(-90 616.055 971.108)" stroke="#000000" id="arrow_ent_1" d="m614.24344,986.41385l10.08932,-10.12377l-19.50721,0l-19.50716,0l0,-6.26709l0,-6.2671l19.28338,0c10.60584,0 19.28336,-0.31765 19.28336,-0.70588c0,-0.38823 -4.22215,-4.94393 -9.38255,-10.12377l-9.38258,-9.4179l8.67237,0l8.67234,0l13.24463,13.27002l13.24462,13.27002l-13.27003,13.24463l-13.27002,13.24463l-9.1299,0l-9.12992,0l10.08935,-10.12378l0,0z" stroke-width="0" fill="#ffffff"/>
  <path transform="rotate(-90 786.458 971.108)" stroke="#000000" id="arrow_ent_2" d="m783.56554,987.49899l10.08932,-10.12377l-19.50721,0l-19.50716,0l0,-6.2671l0,-6.2671l19.28338,0c10.60584,0 19.28336,-0.31765 19.28336,-0.70588c0,-0.38823 -4.22215,-4.94393 -9.38255,-10.12377l-9.38258,-9.4179l8.67237,0l8.67234,0l13.24463,13.27002l13.24462,13.27002l-13.27003,13.24463l-13.27002,13.24462l-9.1299,0l-9.12992,0l10.08935,-10.12378l0,0.00001z" stroke-width="0" fill="#ffffff"/>
  <path transform="rotate(-180 236.448 557.767)" stroke="#000000" id="arrow_ext_1" d="m233.55519,574.15787l10.08932,-10.12377l-19.50721,0l-19.50716,0l0,-6.2671l0,-6.2671l19.28338,0c10.60584,0 19.28336,-0.31765 19.28336,-0.70588c0,-0.38823 -4.22215,-4.94393 -9.38255,-10.12377l-9.38258,-9.4179l8.67237,0l8.67234,0l13.24463,13.27002l13.24462,13.27002l-13.27003,13.24463l-13.27002,13.24462l-9.1299,0l-9.12992,0l10.08935,-10.12378l0,0.00001z" stroke-width="0" fill="#ffffff"/>
  <path transform="rotate(-180 234.781 417.285)" stroke="#000000" id="arrow_ext_2" d="m231.88849,433.67564l10.08932,-10.12377l-19.50721,0l-19.50716,0l0,-6.2671l0,-6.2671l19.28338,0c10.60584,0 19.28336,-0.31765 19.28336,-0.70588c0,-0.38823 -4.22215,-4.94393 -9.38255,-10.12377l-9.38258,-9.4179l8.67237,0l8.67234,0l13.24463,13.27002l13.24462,13.27002l-13.27003,13.24463l-13.27002,13.24462l-9.1299,0l-9.12992,0l10.08935,-10.12378l0,0.00001z" stroke-width="0" fill="#ffffff"/>
  </g>
  <g>
  <title>boxes</title>
  <rect transform="rotate(-90 124.78 493.422)" stroke="#000" stroke-width="0" id="box_exit" height="15.71429" width="249.98432" y="485.56435" x="-0.21232" fill="#ba5b66"/>
  <rect stroke="#000" stroke-width="0" id="box_enter" height="15.71429" width="309.82626" y="1227.00001" x="545.0309" fill="#5ca4bc"/>
  <rect stroke="#000" id="box_staff_ent" height="233.02513" width="10.13175" y="736.21637" x="453.86486" stroke-width="0" fill="#49ff62"/>
  <rect transform="rotate(-90 198.426 668.272)" stroke="#000" id="box_staff_win_2" height="133.60024" width="8.45108" y="601.47238" x="194.20084" stroke-width="0" fill="#72ffe5"/>
  <rect stroke="#000" id="box_staff_win_1" height="133.60024" width="8.45108" y="1103.15337" x="455.54553" stroke-width="0" fill="#72ffe5"/>
  </g>
  <g>
  <title>icons</title>
  <path stroke-width="0" id="icn_cam" d="m920.17775,1059.10981l-9.60177,0l0,-3.84071l-24.00442,0l0,3.84071l-9.60177,0c-2.82676,0 -5.12094,2.29418 -5.12094,5.12094l0,26.56488c0,2.82676 2.29418,5.12094 5.12094,5.12094l43.20796,0c2.82676,0 5.12094,-2.29418 5.12094,-5.12094l0,-26.56488c0,-2.82676 -2.29418,-5.12094 -5.12094,-5.12094zm-21.60526,33.92368c-8.5571,0 -15.51646,-6.96192 -15.51646,-15.51901c0,-8.55709 6.95936,-15.52157 15.51646,-15.52157s15.52158,6.96448 15.52158,15.52157c0,8.55709 -6.96704,15.51901 -15.52158,15.51901zm0,-25.92221c-5.7457,0 -10.40064,4.6575 -10.40064,10.40063c0,5.7457 4.6575,10.40063 10.40064,10.40063c5.7457,0 10.40064,-4.65494 10.40064,-10.40063c0.00256,-5.74314 -4.65238,-10.40063 -10.40064,-10.40063z" stroke="#000" fill="#00002d"/>
  <path stroke-width="0" id="icn_power" d="m496.0483,1123.19704l-5.05195,-2.00495l4.06959,-10.25184c0.36336,-0.91488 -0.08305,-1.95304 -1.00053,-2.3164c-0.91747,-0.36336 -1.95434,0.08435 -2.3164,1.00053l-4.06959,10.25184l-6.33278,-2.51365l4.06829,-10.25184c0.36465,-0.91618 -0.08305,-1.95434 -0.99923,-2.31769c-0.91618,-0.36206 -1.95434,0.08435 -2.3164,1.00053l-4.06959,10.25184l-5.04936,-2.00365l-2.09449,5.27645l2.79006,1.10824l-3.29227,8.29361c-0.7916,1.99846 0.18557,4.26035 2.18403,5.05455l2.11006,0.83832l-1.13808,2.86403c-0.52816,1.33014 0.12328,2.83937 1.45602,3.36883l1.20686,0.47885c1.33144,0.52946 2.83937,-0.12328 3.36883,-1.45472l1.13808,-2.86403l2.41113,0.95641c1.99846,0.7929 4.26165,-0.18427 5.05584,-2.18273l3.28967,-8.29361l2.48899,0.98755l2.09319,-5.27645z" stroke="#000" fill="#00002d"/>
  <path id="icn_speaker" d="m503.41181,1118.25852l0,14.90194l8.48331,0l12.69949,10.42909l0.00755,-35.76011l-12.70138,10.42909l-8.48897,0zm26.05952,-1.71365c-0.7417,-0.73415 -1.93257,-0.73415 -2.6705,0.00377c-0.73604,0.73793 -0.73604,1.93257 0.00377,2.67238l0,-0.00377c1.62872,1.63061 2.63275,3.86703 2.63275,6.35257c0,2.48366 -1.00214,4.71253 -2.62898,6.34314c-0.74359,0.73415 -0.74359,1.9288 -0.00377,2.6705c0.36802,0.36802 0.85116,0.55297 1.3343,0.55297c0.48503,0 0.96817,-0.18495 1.33619,-0.55297c2.30625,-2.30248 3.73681,-5.50141 3.73492,-9.01363c0.00189,-3.51977 -1.43433,-6.72248 -3.7387,-9.02496zm4.3313,-4.32941c-0.7417,-0.73793 -1.93257,-0.73793 -2.66672,0c-0.73981,0.73793 -0.73981,1.93446 0,2.66861c2.73655,2.73844 4.42378,6.50544 4.42378,10.68387c0,4.17466 -1.68723,7.93977 -4.42,10.6801c-0.73981,0.73604 -0.73981,1.93068 0,2.66861c0.36802,0.36802 0.85116,0.55297 1.33619,0.55297c0.48314,0 0.96629,-0.18495 1.3343,-0.55297c3.4122,-3.41408 5.52783,-8.1436 5.52406,-13.34871c0.00189,-5.20888 -2.11375,-9.94217 -5.53161,-13.35248z" stroke-width="0" stroke="#000" fill="#00002d"/>
  <path stroke="#000" id="icn_operator" d="m438.59646,1206.5143c0,0 1.07044,-4.55038 0,-6.09181c-1.07171,-1.54143 -1.49913,-2.56818 -3.85562,-3.30324s-1.49787,-0.58857 -3.21133,-0.51338c-1.71347,0.0739 -3.14199,1.02675 -3.14199,1.54013c0,0 -1.07044,0.0739 -1.49787,0.51467c-0.42868,0.44078 -1.14231,2.49428 -1.14231,3.00896s0.35681,3.96441 0.71363,4.69817l-0.4249,0.14649c-0.35681,4.2561 1.42726,4.77077 1.42726,4.77077c0.64176,3.96441 1.28479,2.27649 1.28479,3.30324s-0.64302,0.66117 -0.64302,0.66117s-0.5699,1.61402 -1.99715,2.2013c-1.42726,0.58598 -9.35032,3.74143 -9.9946,4.40259c-0.64428,0.66246 -0.57116,3.74402 -0.57116,3.74402l33.97559,0c0,0 0.07439,-3.08156 -0.5699,-3.74402c-0.64554,-0.66246 -8.5686,-3.81662 -9.99586,-4.40259c-1.42726,-0.58727 -1.99715,-2.2013 -1.99715,-2.2013s-0.64302,0.36559 -0.64302,-0.66117s0.64302,0.66117 1.28605,-3.30324c0,0 1.78281,-0.51467 1.42726,-4.77077l-0.42868,0z" stroke-width="0" fill="#00002d"/>
  <path stroke="#000" id="icn_staff" d="m433.59209,756.46046c-1.39197,-0.55703 -1.94777,-2.08795 -1.94777,-2.08795s-0.62712,0.34676 -0.62712,-0.62712s0.62712,0.62712 1.25425,-3.13316c0,0 1.73873,-0.48817 1.39197,-4.52513l-0.41808,0c0,0 1.04398,-4.31609 0,-5.77815c-1.04521,-1.46206 -1.46206,-2.43595 -3.76028,-3.13316s-1.46083,-0.55826 -3.13193,-0.48694c-1.6711,0.07009 -3.0643,0.97389 -3.0643,1.46083c0,0 -1.04398,0.07009 -1.46083,0.48817c-0.41808,0.41808 -1.11407,2.36586 -1.11407,2.85403s0.34799,3.76028 0.69598,4.45627l-0.41439,0.13895c-0.34799,4.03696 1.39197,4.52513 1.39197,4.52513c0.62589,3.76028 1.25302,2.15927 1.25302,3.13316s-0.62712,0.62712 -0.62712,0.62712s-0.5558,1.53092 -1.94777,2.08795c-1.39197,0.5558 -9.11911,3.54878 -9.74747,4.17591c-0.62835,0.62835 -0.55703,3.55124 -0.55703,3.55124l33.13549,0c0,0 0.07255,-2.92289 -0.5558,-3.55124c-0.62958,-0.62712 -8.35673,-3.6201 -9.7487,-4.17591zm-15.33379,-0.2115c-0.12174,-0.22134 -0.18199,-0.38119 -0.18199,-0.38119s-0.53121,0.29389 -0.53121,-0.53121s0.53121,0.53121 1.06242,-2.65482c0,0 1.47436,-0.41316 1.17924,-3.83529l-0.35414,0c0,0 0.17584,-0.72673 0.29143,-1.64036c-0.00492,-0.37873 0.00738,-0.78206 0.0455,-1.22474l0.04673,-0.52383c-0.02582,-0.60499 -0.13157,-1.15465 -0.38365,-1.50756c-0.88535,-1.23826 -1.23949,-2.06459 -3.18603,-2.65482c-1.94654,-0.59023 -1.23949,-0.47342 -2.65482,-0.41316c-1.41656,0.05902 -2.59703,0.8251 -2.59703,1.23949c0,0 -0.88535,0.05902 -1.23949,0.41316c-0.33324,0.33324 -0.86691,1.79775 -0.93085,2.3179l0,0.34553c0.05779,0.80296 0.31725,3.01142 0.57671,3.53157l-0.35168,0.11805c-0.29389,3.42213 1.17924,3.83529 1.17924,3.83529c0.53121,3.18603 1.06242,1.82973 1.06242,2.65482s-0.53121,0.53121 -0.53121,0.53121s-0.47096,1.29974 -1.65143,1.76947c-0.07501,0.02951 -0.17092,0.06886 -0.28528,0.11313l0,6.43601l0.70705,0c-0.03566,-1.5715 0.09468,-3.5992 0.91732,-4.41938c0.43776,-0.43653 1.87276,-1.15465 7.81076,-3.51927zm27.45818,-11.13575c-0.04919,-0.46481 -0.15617,-0.8792 -0.35906,-1.16325c-0.88412,-1.23949 -1.23949,-2.06459 -3.1848,-2.65482c-1.94777,-0.59023 -1.23949,-0.47342 -2.65605,-0.41316c-1.41533,0.05902 -2.5958,0.8251 -2.5958,1.23949c0,0 -0.88412,0.05902 -1.23949,0.41316c-0.33324,0.33447 -0.87182,1.81005 -0.93208,2.32528l0.04058,0l0.09837,1.12267c0.02459,0.28405 0.02705,0.53613 0.0332,0.79313c0.11067,0.81895 0.25823,1.66003 0.40579,1.95392l-0.35168,0.11805c-0.29389,3.42213 1.18047,3.83529 1.18047,3.83529c0.53121,3.18603 1.06119,1.82973 1.06119,2.65482s-0.53121,0.53121 -0.53121,0.53121s-0.06517,0.17461 -0.20043,0.41562c5.86545,2.33634 7.28816,3.04954 7.721,3.48484c0.82387,0.82018 0.95298,2.84665 0.91732,4.41938l0.59023,0l0,-6.52455c-0.01967,-0.00738 -0.04673,-0.01844 -0.06394,-0.02582c-1.17924,-0.47096 -1.65143,-1.76947 -1.65143,-1.76947s-0.53244,0.29389 -0.53244,-0.53121s0.53244,0.53121 1.06242,-2.65482c0,0 0.98864,-0.28159 1.18416,-2.26379l0,-1.50879c-0.00123,-0.02213 -0.00123,-0.04058 -0.00369,-0.06271l-0.35537,0c0,0 0.26438,-1.09439 0.35906,-2.28839l0,-1.44607l0.00369,0z" stroke-width="0" fill="#00002d"/>
  <path stroke-width="0" stroke="#000" id="icn_gate" d="m466.29517,956.18673c-0.00811,-9.74301 -0.01621,-19.48603 -0.02431,-29.22904c7.31815,0.11198 14.66734,-0.26528 21.96072,0.28755c3.55658,1.26273 3.04402,9.12335 2.98627,14.99463c-0.15602,4.42766 2.07799,13.20498 -3.7245,14.52429c-2.89285,0.00016 -2.90424,1.23614 -2.60896,3.47197c0.34266,3.34955 -0.65212,10.85297 -5.4044,6.09703l-13.18481,-10.14643l0,0zm22.39708,-3.18499c0.01176,-8.75772 -0.08633,-16.22932 -0.57184,-21.99941c-4.31372,-1.96268 -10.14274,-1.00753 -15.02347,-1.03735c-1.9186,0.93342 4.55124,4.03282 5.92343,5.23544c5.20934,2.58582 6.76358,7.28838 5.86402,12.60298c0,2.06735 0,4.13471 0,6.20206c0.96065,-0.00116 2.94808,-0.47726 3.80786,-1.00372l0,0.00001z" fill="#00002d"/>
  </g>
  <g>
  <title>slots</title>
  <path data-key="12343353" data-name="shubh" filter="url(#blur-filter)" stroke="#000000" opacity="0.75" id="slot_1" d="m139.84993,58.8514c0,0 224.99811,2.8571 224.43284,2.57668l232.85526,222.85534c-2.29186,-4.00527 -233.71855,5.99465 -233.71855,0.28041l-223.56955,-225.71243z" stroke-width="0" fill="#ff0000"/>
  <path stroke="#000000" opacity="0.75" filter="url(#blur-filter)" id="slot_2" d="m408.41911,62.42278c0,0 217.85535,-0.71429 217.29008,-0.99471c0.56527,0.28042 235.14712,226.86061 232.85526,222.85534c-2.29186,-4.00526 -233.71855,5.99465 -233.71855,0.28042l-216.42679,-222.14105z" stroke-width="0" fill="#ff0000" title="hfdskhfdsjfhksh"/>
  <path stroke="#000000" opacity="0.75" filter="url(#blur-filter)" id="slot_3" d="m661,61.70849c0,0 228.1295,-1.42856 227.56423,-1.70898c0.56527,0.28042 235.14712,226.86061 232.85526,222.85534c-2.29186,-4.00526 -233.71855,5.99465 -233.71855,0.28042l-226.70094,-221.42678z" stroke-width="0" fill="#ff0000"/>
  <path transform="rotate(90 1270.8 310.379)" filter="url(#blur-filter)" stroke="#000000" opacity="0.75" id="slot_4" d="m1045.11573,199.6282c0,0 217.92923,-1.9894 218.4945,-1.70898c0.56527,0.28042 235.14712,226.8606 232.85526,222.85534c-2.29186,-4.00526 -233.71855,5.99465 -233.71855,0.28042l-217.63121,-221.42678z" stroke-width="0" fill="#ff0000"/>
  <path transform="rotate(90 1267.17 575.584)" stroke="#000000" opacity="0.75" filter="url(#blur-filter)" id="slot_5" d="m1038.7951,464.81949c0,0 224.44557,-1.42856 223.8803,-1.70898c0.56527,0.28042 235.14712,226.86061 232.85526,222.85534c-2.29186,-4.00526 -233.71855,5.99465 -233.71855,0.28042l-223.01701,-221.42678z" stroke-width="0" fill="#ff0000"/>
  <path transform="rotate(90 1267.17 834.446)" stroke="#000000" opacity="0.75" filter="url(#blur-filter)" id="slot_6" d="m1038.7951,723.68182c0,0 224.44557,-1.42856 223.8803,-1.70898c0.56527,0.28042 235.14712,226.86061 232.85526,222.85534c-2.29186,-4.00526 -233.71855,5.99465 -233.71855,0.28042l-223.01701,-221.42678z" stroke-width="0" fill="#ff0000"/>
  </g>
  <g>
  <title>texts</title>
  <text font-style="normal" font-weight="normal" transform="matrix(1.41701 0 0 1.41701 -250.352 -380.674)" stroke="#000" xml:space="preserve" text-anchor="start" font-family="sans-serif" font-size="48" stroke-width="0" id="txt_slot_1" y="525.26403" x="524.12452" fill="#333333" style="user-select: none;">1</text>
  <text font-style="normal" font-weight="normal" transform="matrix(1.41701 0 0 1.41701 -250.352 -380.674)" stroke="#000" xml:space="preserve" text-anchor="start" font-family="sans-serif" font-size="48" stroke-width="0" id="txt_slot_2" y="520.6886" x="696.36288" fill="#333333" style="user-select: none;">2</text>
  <text font-style="normal" font-weight="normal" transform="matrix(1.41701 0 0 1.41701 -250.352 -380.674)" stroke="#000" xml:space="preserve" text-anchor="start" font-family="sans-serif" font-size="48" stroke-width="0" id="txt_slot_3" y="528.05584" x="886.51529" fill="#333333" style="user-select: none;">3</text>
  <text font-style="normal" font-weight="normal" transform="matrix(1.41701 0 0 1.41701 -250.352 -380.674)" stroke="#000" xml:space="preserve" text-anchor="start" font-family="sans-serif" font-size="48" stroke-width="0" id="txt_slot_4" y="637.7889" x="939.86965" fill="#333333" style="user-select: none;">4</text>
  <text font-style="normal" font-weight="normal" transform="matrix(1.41701 0 0 1.41701 -250.352 -380.674)" stroke="#000" xml:space="preserve" text-anchor="start" font-family="sans-serif" font-size="48" stroke-width="0" id="txt_slot_5" y="802.97023" x="944.91035" fill="#333333" style="user-select: none;">5</text>
  <text font-style="normal" font-weight="normal" transform="matrix(1.41701 0 0 1.41701 -250.352 -380.674)" stroke="#000" xml:space="preserve" text-anchor="start" font-family="sans-serif" font-size="48" stroke-width="0" id="svg_67" y="972.49436" x="946.92665" fill="#333333" style="user-select: none;">6</text>
  <text id="txt_enter" font-style="normal" font-weight="bold" transform="matrix(1.194 0 0 1.194 -177.331 -198.299)" stroke="#000" xml:space="preserve" text-anchor="start" font-family="sans-serif" font-size="24" stroke-width="0.2" y="1181.97254" x="667.92781" fill="#ffffff" style="user-select: none;">ENTRANCE</text>
  <text font-style="normal" font-weight="bold" transform="matrix(1.194 0 0 1.194 -177.331 -198.299)" stroke="#000" xml:space="preserve" text-anchor="start" font-family="sans-serif" font-size="24" stroke-width="0.2" id="txt_exit" y="588.34729" x="268.25932" fill="#ffffff" style="user-select: none;">EXIT</text>
  <text font-style="normal" font-weight="bold" transform="matrix(1.41701 0 0 1.41701 -300.352 -430.674)" stroke="#000" xml:space="preserve" text-anchor="start" font-family="sans-serif" font-size="24" stroke-width="0.2" id="txt_staff_room" y="996.832" x="335.85032" fill="#ffffff" style="user-select: none;">STAFF ROOM</text>
  </g>
  <g>
  <title>slot buttons</title>
  <path transform="rotate(-135 492.588 317.695)" stroke-width="0" stroke="#000000" y="467.2342" x="1054.67261" height="49.0187" width="49.0187" id="slot_1_btn" d="m498.91962,317.69466l-37.08821,-37.12675l24.42552,0l37.08821,37.12675l-37.08821,37.12673l-24.42552,0l37.08821,-37.12673z" fill="#ffffff"/>
  <path transform="rotate(-135 732.974 312.771)" stroke-width="0" stroke="#000000" y="467.2342" x="1054.67261" height="49.0187" width="49.0187" id="slot_2_btn" d="m739.30515,312.77104l-37.08821,-37.12675l24.42552,0l37.08821,37.12675l-37.08821,37.12673l-24.42552,0l37.08821,-37.12673z" fill="#ffffff"/>
  <path transform="rotate(-135 1007.56 322.049)" stroke-width="0" stroke="#000000" y="467.2342" x="1054.67261" height="49.0187" width="49.0187" id="slot_3_btn" d="m1013.89618,322.04894l-37.08821,-37.12675l24.42552,0l37.08821,37.12675l-37.08821,37.12673l-24.42552,0l37.08821,-37.12673z" fill="#ffffff"/>
  <path transform="rotate(-45 1120.78 476.135)" stroke-width="0" stroke="#000000" y="467.2342" x="1054.67261" height="49.0187" width="49.0187" id="slot_4_btn" d="m1127.11559,476.13516l-37.08821,-37.12675l24.42552,0l37.08821,37.12675l-37.08821,37.12673l-24.42552,0l37.08821,-37.12673z" fill="#ffffff"/>
  <path transform="rotate(-45 1125.03 708.123)" stroke-width="0" stroke="#000000" y="467.2342" x="1054.67261" height="49.0187" width="49.0187" id="slot_5_btn" d="m1131.36193,708.12345l-37.08821,-37.12676l24.42551,0l37.08821,37.12676l-37.08821,37.12673l-24.42551,0l37.08821,-37.12673z" fill="#ffffff"/>
  <path transform="rotate(-45 1124.93 950.488)" stroke-width="0" stroke="#000000" y="467.2342" x="1054.67261" height="49.0187" width="49.0187" id="slot_6_btn" d="m1131.26041,950.48792l-37.08821,-37.12676l24.42551,0l37.08821,37.12676l-37.08821,37.12673l-24.42551,0l37.08821,-37.12673z" fill="#ffffff"/>
  </g>
  </g>
</svg>